<svg xmlns="http://www.w3.org/2000/svg" viewBox="0 0 100 100" fill="none">
  <rect width="100" height="100" rx="16" fill="#0a1628"/>
  <g fill="white" transform="translate(18, 18) scale(0.64)">
    <circle cx="26" cy="22" r="11"/>
    <path d="M26 34 C14 34 6 44 6 54 C6 60 12 62 22 60 C34 58 46 50 54 38 C58 30 60 22 60 20 L56 24 C54 28 48 38 38 44 C28 52 18 54 12 48 C10 44 14 36 22 32 C24 32 26 34 Z"/>
    <path d="M76 14 L80 26 L92 26 L82 36 L86 48 L76 40 L66 48 L70 36 L60 26 L72 26 Z" fill="#fbbf24"/>
  </g>
</svg>
