<svg xmlns="http://www.w3.org/2000/svg" viewBox="0 0 100 100" fill="none">
  <rect width="100" height="100" rx="12" fill="#000000"/>
  <g fill="white" transform="translate(20, 20) scale(0.6)">
    <circle cx="24" cy="24" r="10"/>
    <path d="M24 34 C14 34 8 42 8 52 C8 58 14 60 22 58 C32 56 42 50 50 40 C54 32 56 24 56 22 L52 26 C50 30 44 38 36 44 C28 50 18 52 14 48 C12 44 16 38 22 34 C23 34 24 34 Z"/>
    <path d="M72 16 L76 28 L88 28 L78 36 L82 48 L72 40 L62 48 L66 36 L56 28 L68 28 Z"/>
  </g>
</svg>
